<svg width="24" height="25" viewBox="0 0 24 25" fill="none" xmlns="http://www.w3.org/2000/svg">
<path d="M15.4024 21.5V14.5344H17.7347L18.0838 11.8265H15.4024V10.0976C15.4024 9.31364 15.62 8.77934 16.7443 8.77934L18.1783 8.77867V6.35676C17.9302 6.32382 17.0791 6.25006 16.0888 6.25006C14.0213 6.25006 12.606 7.51198 12.606 9.82952V11.8265H10.2677V14.5344H12.606V21.5H4C3.44772 21.5 3 21.0523 3 20.5V4.5C3 3.94772 3.44772 3.5 4 3.5H20C20.5523 3.5 21 3.94772 21 4.5V20.5C21 21.0523 20.5523 21.5 20 21.5H15.4024Z" fill="#F0EBE1"/>
</svg>
