<svg width="24" height="25" viewBox="0 0 24 25" fill="none" xmlns="http://www.w3.org/2000/svg">
<path d="M13.0281 2.50049C14.1535 2.50235 14.7238 2.50831 15.2166 2.52298L15.4107 2.52932C15.6349 2.53729 15.8561 2.54729 16.1228 2.55979C17.1869 2.60896 17.9128 2.77729 18.5503 3.02479C19.2094 3.27896 19.7661 3.62229 20.3219 4.17813C20.8769 4.73396 21.2203 5.29229 21.4753 5.94979C21.7219 6.58646 21.8903 7.31313 21.9403 8.37729C21.9522 8.64396 21.9618 8.86516 21.9697 9.0894L21.976 9.28349C21.9906 9.77623 21.9973 10.3466 21.9994 11.4721L22.0002 12.2177C22.0003 12.3088 22.0003 12.4028 22.0003 12.4998L22.0002 12.7819L21.9996 13.5276C21.9977 14.653 21.9918 15.2234 21.9771 15.7161L21.9707 15.9102C21.9628 16.1345 21.9528 16.3557 21.9403 16.6223C21.8911 17.6865 21.7219 18.4123 21.4753 19.0498C21.2211 19.709 20.8769 20.2657 20.3219 20.8215C19.7661 21.3765 19.2069 21.7198 18.5503 21.9748C17.9128 22.2215 17.1869 22.3898 16.1228 22.4398C15.8561 22.4517 15.6349 22.4614 15.4107 22.4692L15.2166 22.4755C14.7238 22.4902 14.1535 22.4968 13.0281 22.499L12.2824 22.4998C12.1913 22.4998 12.0973 22.4998 12.0003 22.4998H11.7182L10.9725 22.4991C9.8471 22.4973 9.27672 22.4913 8.78397 22.4766L8.58989 22.4703C8.36564 22.4623 8.14444 22.4523 7.87778 22.4398C6.81361 22.3907 6.08861 22.2215 5.45028 21.9748C4.79194 21.7207 4.23444 21.3765 3.67861 20.8215C3.12278 20.2657 2.78028 19.7065 2.52528 19.0498C2.27778 18.4123 2.11028 17.6865 2.06028 16.6223C2.0484 16.3557 2.03871 16.1345 2.03086 15.9102L2.02457 15.7161C2.00994 15.2234 2.00327 14.653 2.00111 13.5276L2.00098 11.4721C2.00284 10.3466 2.00879 9.77623 2.02346 9.28349L2.02981 9.0894C2.03778 8.86516 2.04778 8.64396 2.06028 8.37729C2.10944 7.31229 2.27778 6.58729 2.52528 5.94979C2.77944 5.29146 3.12278 4.73396 3.67861 4.17813C4.23444 3.62229 4.79278 3.27979 5.45028 3.02479C6.08778 2.77729 6.81278 2.60979 7.87778 2.55979C8.14444 2.54792 8.36564 2.53823 8.58989 2.53038L8.78397 2.52409C9.27672 2.50945 9.8471 2.50278 10.9725 2.50062L13.0281 2.50049ZM12.0003 7.49979C9.23738 7.49979 7.00028 9.73932 7.00028 12.4998C7.00028 15.2627 9.23981 17.4998 12.0003 17.4998C14.7632 17.4998 17.0003 15.2603 17.0003 12.4998C17.0003 9.73689 14.7607 7.49979 12.0003 7.49979ZM12.0003 9.49979C13.6572 9.49979 15.0003 10.8425 15.0003 12.4998C15.0003 14.1567 13.6576 15.4998 12.0003 15.4998C10.3434 15.4998 9.00028 14.1572 9.00028 12.4998C9.00028 10.8429 10.3429 9.49979 12.0003 9.49979ZM17.2503 5.99979C16.561 5.99979 16.0003 6.5597 16.0003 7.24894C16.0003 7.93819 16.5602 8.49896 17.2503 8.49896C17.9395 8.49896 18.5003 7.93906 18.5003 7.24894C18.5003 6.5597 17.9386 5.99893 17.2503 5.99979Z" fill="#F0EBE1"/>
</svg>
