<svg width="24" height="25" viewBox="0 0 24 25" fill="none" xmlns="http://www.w3.org/2000/svg">
<path d="M16.5999 6.32C15.9163 5.53962 15.5396 4.53743 15.5399 3.5H12.4499V15.9C12.4261 16.571 12.1428 17.2066 11.6597 17.6729C11.1766 18.1393 10.5314 18.3999 9.85991 18.4C8.43991 18.4 7.25991 17.24 7.25991 15.8C7.25991 14.08 8.91991 12.79 10.6299 13.32V10.16C7.17991 9.7 4.15991 12.38 4.15991 15.8C4.15991 19.13 6.91991 21.5 9.84991 21.5C12.9899 21.5 15.5399 18.95 15.5399 15.8V9.51C16.7929 10.4099 18.2973 10.8926 19.8399 10.89V7.8C19.8399 7.8 17.9599 7.89 16.5999 6.32Z" fill="#F0EBE1"/>
</svg>
